<svg id="Layer_1" data-name="Layer 1" xmlns="http://www.w3.org/2000/svg" xmlns:xlink="http://www.w3.org/1999/xlink" viewBox="0 0 40 38"><defs><style>.cls-1,.cls-5{fill:none;}.cls-2{clip-path:url(#clip-path);}.cls-3{fill:#d1c2dc;}.cls-4{clip-path:url(#clip-path-2);}.cls-5{stroke:#fff;stroke-width:0.96px;}</style><clipPath id="clip-path"><rect class="cls-1" x="1" y="-0.01" width="38.01" height="38.01"/></clipPath><clipPath id="clip-path-2"><circle class="cls-1" cx="20" cy="19" r="19"/></clipPath></defs><title>DM_App-Icons_16-1-2019_</title><g class="cls-2"><path class="cls-3" d="M20,38A19,19,0,1,0,1,19,19,19,0,0,0,20,38"/></g><g class="cls-4"><path class="cls-5" d="M20,22.12a7.34,7.34,0,1,0-7.33-7.34A7.33,7.33,0,0,0,20,22.12Z"/><path class="cls-5" d="M18.44,22.12s-5.77,0-5.77,5.78V41.61s0,5.77,5.77,5.77h3.13s5.77,0,5.77-5.77V27.9s0-5.78-5.77-5.78Z"/></g></svg>